#!OML:ASF F:\VICON\USERDATA\INSTALL\rory3\rory3.ASF
:FULLY-SPECIFIED
:DEGREES
692
root 1.47005 16.6861 21.7504 396.276 24.1723 -355.58
lowerback -19.469 -4.84445 2.04181
upperback -20.9148 -6.27555 -0.114216
thorax -13.1197 -3.343 -1.75246
lowerneck -1.60317 5.15398 -1.69481
upperneck 7.36953 6.61344 5.85169
head 2.35318 3.43215 2.32968
rclavicle 3.16316e-014 2.34069e-014
rhumerus -10.7602 -380.816 -359.848
rradius 20.6017
rwrist 11.3836
rhand 16.0676 0.893862
rfingers 7.12502
rthumb 40.8556 -24.0683
lclavicle 3.16316e-014 2.34069e-014
lhumerus 63.595 -4.96907 32.37
lradius 26.4979
lwrist -19.4119
lhand 6.17134 21.8191
lfingers 7.12502
lthumb 31.4866 49.1267
rfemur -62.5613 11.3524 374.004
rtibia 41.3893
rfoot 128.401 140.193
rtoes 41.16
lfemur -20.3355 -4.2335 -19.5473
ltibia 37.1003
lfoot -206.559 -145.987
ltoes 39.3336
693
root 1.49263 16.6906 21.7555 396.132 24.3223 -355.768
lowerback -19.1895 -4.76199 2.44716
upperback -21.0112 -6.21263 -0.180578
thorax -13.4656 -3.37633 -2.00942
lowerneck -1.55011 5.16109 -1.5259
upperneck 7.6262 6.60386 5.91437
head 2.43259 3.43665 2.32745
rclavicle 1.81639e-014 1.07344e-014
rhumerus -11.1603 -376.838 -359.991
rradius 21.3886
rwrist 7.58393
rhand 16.3756 -0.110671
rfingers 7.12502
rthumb 41.1449 -24.9808
lclavicle 1.81639e-014 1.07344e-014
lhumerus 63.7255 -5.39513 31.9566
lradius 26.5544
lwrist -19.6375
lhand 6.79555 22.1489
lfingers 7.12502
lthumb 32.0811 49.3386
rfemur -62.3861 11.3102 374.247
rtibia 41.4156
rfoot 128.235 140.314
rtoes 41.3254
lfemur -20.2216 -4.11918 -19.4385
ltibia 37.0933
lfoot -207.379 -146.522
ltoes 40.2667
694
root 1.51101 16.6924 21.763 396.033 24.4853 -356.003
lowerback -19.1951 -4.71625 2.78246
upperback -20.9338 -6.18812 -0.167089
thorax -13.4023 -3.40984 -2.17836
lowerneck -1.54837 5.12914 -1.21964
upperneck 7.65086 6.5647 5.64191
head 2.4598 3.41762 2.18544
rclavicle 1.55052e-014 -2.72335e-014
rhumerus -11.202 -376.747 -359.942
rradius 21.3804
rwrist 7.32304
rhand 17.0801 -0.345298
rfingers 7.12502
rthumb 41.8059 -25
lclavicle 1.55052e-014 -2.72335e-014
lhumerus 63.9989 -5.42519 31.6384
lradius 26.6419
lwrist -19.7161
lhand 7.35643 22.4718
lfingers 7.12502
lthumb 32.6149 49.5525
rfemur -62.3032 11.2934 374.532
rtibia 41.4579
rfoot 128.082 140.369
rtoes 41.1011
lfemur -20.1506 -3.96419 -19.2484
ltibia 37.0526
lfoot -208.612 -147.534
ltoes 41.8489
695
root 1.51949 16.6871 21.7718 396.214 24.471 -355.963
lowerback -19.4041 -4.76984 2.61222
upperback -20.7872 -6.24317 -0.120787
thorax -13.0629 -3.40705 -2.06643
lowerneck -1.74987 5.06832 -1.20599
upperneck 7.51979 6.48861 5.58926
head 2.45798 3.37864 2.16825
rclavicle 1.68967e-015 -5.46658e-015
rhumerus -11.12 -377.29 -359.848
rradius 21.2927
rwrist 7.58919
rhand 17.8936 -0.89587
rfingers 7.12502
rthumb 42.568 -25.2927
lclavicle 1.68967e-015 -5.46658e-015
lhumerus 64.3793 -5.13719 31.5096
lradius 26.6909
lwrist -19.8696
lhand 7.66439 22.7083
lfingers 7.12502
lthumb 32.9079 49.7279
rfemur -62.4866 11.2448 374.475
rtibia 41.5069
rfoot 128.2 140.132
rtoes 40.4314
lfemur -20.2161 -3.92287 -19.3406
ltibia 36.996
lfoot -210.521 -148.531
ltoes 42.3995
696
root 1.52441 16.6795 21.7833 396.449 24.3725 -355.877
lowerback -19.617 -4.85696 2.32139
upperback -20.6713 -6.32568 -0.0254867
thorax -12.7416 -3.39801 -1.83617
lowerneck -2.03912 5.0682 -1.21435
upperneck 7.31468 6.50158 5.46557
head 2.4456 3.38129 2.13431
rclavicle 2.18415e-014 -1.5207e-014
rhumerus -10.7885 -377.846 -359.829
rradius 21.1175
rwrist 8.03766
rhand 18.937 -1.61099
rfingers 7.12502
rthumb 43.5436 -25.662
lclavicle 2.18415e-014 -1.5207e-014
lhumerus 64.6549 -4.81281 31.3959
lradius 26.6476
lwrist -19.8048
lhand 7.73372 22.8516
lfingers 7.12502
lthumb 32.9738 49.8573
rfemur -62.7365 11.2446 374.333
rtibia 41.5667
rfoot 128.275 139.929
rtoes 40.2933
lfemur -20.2557 -3.97895 -19.4997
ltibia 36.9219
lfoot -213.108 -152.035
ltoes 46.1403
